<mxfile host="app.diagrams.net" agent="Mozilla/5.0 (Windows NT 10.0; Win64; x64) AppleWebKit/537.36 (KHTML, like Gecko) Chrome/128.0.0.0 Safari/537.36" version="24.7.16">
  <diagram name="Página-1" id="A7BaisGVbiMddVV-wmkI">
    <mxGraphModel dx="2587" dy="868" grid="1" gridSize="16" guides="1" tooltips="1" connect="1" arrows="1" fold="1" page="1" pageScale="1" pageWidth="827" pageHeight="1169" math="0" shadow="0">
      <root>
        <mxCell id="0" />
        <mxCell id="1" parent="0" />
        <mxCell id="XdPFumAg-L-F2V5rF2W7-9" value="" style="edgeStyle=orthogonalEdgeStyle;rounded=0;orthogonalLoop=1;jettySize=auto;html=1;" edge="1" parent="1" source="XdPFumAg-L-F2V5rF2W7-1" target="XdPFumAg-L-F2V5rF2W7-2">
          <mxGeometry relative="1" as="geometry" />
        </mxCell>
        <mxCell id="XdPFumAg-L-F2V5rF2W7-33" style="edgeStyle=orthogonalEdgeStyle;rounded=0;orthogonalLoop=1;jettySize=auto;html=1;exitX=1;exitY=0.567;exitDx=0;exitDy=0;exitPerimeter=0;" edge="1" parent="1" source="XdPFumAg-L-F2V5rF2W7-36">
          <mxGeometry relative="1" as="geometry">
            <mxPoint x="720" y="192" as="targetPoint" />
            <mxPoint x="640" y="71.5" as="sourcePoint" />
            <Array as="points">
              <mxPoint x="720" y="81" />
            </Array>
          </mxGeometry>
        </mxCell>
        <mxCell id="XdPFumAg-L-F2V5rF2W7-1" value="" style="image;html=1;image=img/lib/clip_art/people/Suit_Man_Blue_128x128.png" vertex="1" parent="1">
          <mxGeometry x="40" y="40" width="150" height="160" as="geometry" />
        </mxCell>
        <mxCell id="XdPFumAg-L-F2V5rF2W7-27" style="edgeStyle=orthogonalEdgeStyle;rounded=0;orthogonalLoop=1;jettySize=auto;html=1;" edge="1" parent="1" source="XdPFumAg-L-F2V5rF2W7-2" target="XdPFumAg-L-F2V5rF2W7-5">
          <mxGeometry relative="1" as="geometry" />
        </mxCell>
        <mxCell id="XdPFumAg-L-F2V5rF2W7-2" value="&lt;font style=&quot;vertical-align: inherit;&quot;&gt;&lt;font style=&quot;vertical-align: inherit; font-size: 20px;&quot;&gt;&lt;font style=&quot;vertical-align: inherit;&quot;&gt;&lt;font style=&quot;vertical-align: inherit;&quot;&gt;&lt;font style=&quot;vertical-align: inherit;&quot;&gt;&lt;font style=&quot;vertical-align: inherit;&quot;&gt;&lt;font style=&quot;vertical-align: inherit;&quot;&gt;&lt;font style=&quot;vertical-align: inherit;&quot;&gt;EXTENSÃO&lt;/font&gt;&lt;/font&gt;&lt;/font&gt;&lt;/font&gt;&lt;/font&gt;&lt;/font&gt;&lt;/font&gt;&lt;/font&gt;" style="shape=ext;double=1;rounded=0;whiteSpace=wrap;html=1;" vertex="1" parent="1">
          <mxGeometry x="-320" y="256" width="240" height="120" as="geometry" />
        </mxCell>
        <mxCell id="XdPFumAg-L-F2V5rF2W7-4" value="&lt;font style=&quot;font-size: 20px;&quot;&gt;BANCO DE DADOS&lt;/font&gt;" style="shape=ext;double=1;rounded=0;whiteSpace=wrap;html=1;" vertex="1" parent="1">
          <mxGeometry x="736" y="896" width="240" height="120" as="geometry" />
        </mxCell>
        <mxCell id="XdPFumAg-L-F2V5rF2W7-49" style="edgeStyle=orthogonalEdgeStyle;rounded=0;orthogonalLoop=1;jettySize=auto;html=1;exitX=1;exitY=0.5;exitDx=0;exitDy=0;" edge="1" parent="1" source="XdPFumAg-L-F2V5rF2W7-5">
          <mxGeometry relative="1" as="geometry">
            <mxPoint x="128" y="572" as="targetPoint" />
          </mxGeometry>
        </mxCell>
        <mxCell id="XdPFumAg-L-F2V5rF2W7-5" value="&lt;font style=&quot;vertical-align: inherit; font-size: 20px;&quot;&gt;&lt;font style=&quot;vertical-align: inherit; font-size: 20px;&quot;&gt;&lt;font style=&quot;vertical-align: inherit; font-size: 20px;&quot;&gt;&lt;font style=&quot;vertical-align: inherit; font-size: 20px;&quot;&gt;&lt;font style=&quot;vertical-align: inherit;&quot;&gt;&lt;font style=&quot;vertical-align: inherit;&quot;&gt;&lt;font style=&quot;vertical-align: inherit;&quot;&gt;&lt;font style=&quot;vertical-align: inherit;&quot;&gt;Google Tasks API&lt;/font&gt;&lt;/font&gt;&lt;/font&gt;&lt;/font&gt;&lt;/font&gt;&lt;/font&gt;&lt;/font&gt;&lt;/font&gt;" style="shape=ext;double=1;rounded=0;whiteSpace=wrap;html=1;" vertex="1" parent="1">
          <mxGeometry x="-320" y="512" width="240" height="120" as="geometry" />
        </mxCell>
        <mxCell id="XdPFumAg-L-F2V5rF2W7-10" value="&lt;font style=&quot;font-size: 18px;&quot;&gt;&lt;strong&gt;&lt;font style=&quot;vertical-align: inherit; font-size: 18px;&quot;&gt;&lt;font style=&quot;vertical-align: inherit; font-size: 18px;&quot;&gt;&lt;font style=&quot;vertical-align: inherit; font-size: 18px;&quot;&gt;&lt;font style=&quot;vertical-align: inherit; font-size: 18px;&quot;&gt;O usuário&lt;/font&gt;&lt;/font&gt;&lt;/font&gt;&lt;/font&gt;&lt;/strong&gt;&lt;font style=&quot;vertical-align: inherit; font-size: 18px;&quot;&gt;&lt;font style=&quot;vertical-align: inherit; font-size: 18px;&quot;&gt;&lt;font style=&quot;vertical-align: inherit; font-size: 18px;&quot;&gt;&lt;font style=&quot;vertical-align: inherit; font-size: 18px;&quot;&gt; abre a extensão no navegador.&lt;/font&gt;&lt;/font&gt;&lt;/font&gt;&lt;/font&gt;&lt;/font&gt;" style="text;strokeColor=none;align=left;fillColor=none;html=1;verticalAlign=middle;whiteSpace=wrap;rounded=0;" vertex="1" parent="1">
          <mxGeometry x="-304" y="80" width="352" height="30" as="geometry" />
        </mxCell>
        <mxCell id="XdPFumAg-L-F2V5rF2W7-48" style="edgeStyle=orthogonalEdgeStyle;rounded=0;orthogonalLoop=1;jettySize=auto;html=1;exitX=0.75;exitY=1;exitDx=0;exitDy=0;" edge="1" parent="1" source="XdPFumAg-L-F2V5rF2W7-15" target="XdPFumAg-L-F2V5rF2W7-47">
          <mxGeometry relative="1" as="geometry" />
        </mxCell>
        <mxCell id="XdPFumAg-L-F2V5rF2W7-55" value="" style="edgeStyle=orthogonalEdgeStyle;rounded=0;orthogonalLoop=1;jettySize=auto;html=1;" edge="1" parent="1" source="XdPFumAg-L-F2V5rF2W7-15" target="XdPFumAg-L-F2V5rF2W7-22">
          <mxGeometry relative="1" as="geometry" />
        </mxCell>
        <mxCell id="XdPFumAg-L-F2V5rF2W7-15" value="&lt;font style=&quot;vertical-align: inherit;&quot;&gt;&lt;font style=&quot;vertical-align: inherit; font-size: 20px;&quot;&gt;&lt;font style=&quot;vertical-align: inherit;&quot;&gt;&lt;font style=&quot;vertical-align: inherit;&quot;&gt;&lt;font style=&quot;vertical-align: inherit;&quot;&gt;&lt;font style=&quot;vertical-align: inherit;&quot;&gt;&lt;font style=&quot;vertical-align: inherit;&quot;&gt;&lt;font style=&quot;vertical-align: inherit;&quot;&gt;EXTENSÃO&lt;/font&gt;&lt;/font&gt;&lt;/font&gt;&lt;/font&gt;&lt;/font&gt;&lt;/font&gt;&lt;/font&gt;&lt;/font&gt;" style="shape=ext;double=1;rounded=0;whiteSpace=wrap;html=1;" vertex="1" parent="1">
          <mxGeometry x="256" y="312" width="240" height="120" as="geometry" />
        </mxCell>
        <mxCell id="XdPFumAg-L-F2V5rF2W7-12" value="&lt;font style=&quot;font-size: 20px;&quot;&gt;&lt;strong style=&quot;&quot;&gt;&lt;font style=&quot;vertical-align: inherit; font-size: 20px;&quot;&gt;&lt;font style=&quot;vertical-align: inherit; font-size: 20px;&quot;&gt;&lt;font style=&quot;vertical-align: inherit; font-size: 20px;&quot;&gt;&lt;font style=&quot;vertical-align: inherit; font-size: 20px;&quot;&gt;A extensão&lt;/font&gt;&lt;/font&gt;&lt;/font&gt;&lt;/font&gt;&lt;/strong&gt;&lt;font style=&quot;vertical-align: inherit; font-size: 20px;&quot;&gt;&lt;font style=&quot;vertical-align: inherit; font-size: 20px;&quot;&gt;&lt;font style=&quot;vertical-align: inherit; font-size: 20px;&quot;&gt;&lt;font style=&quot;vertical-align: inherit; font-size: 20px;&quot;&gt; carrega a interface e solicita as tarefas ao &lt;/font&gt;&lt;/font&gt;&lt;/font&gt;&lt;/font&gt;&lt;strong style=&quot;&quot;&gt;&lt;font style=&quot;vertical-align: inherit; font-size: 20px;&quot;&gt;&lt;font style=&quot;vertical-align: inherit; font-size: 20px;&quot;&gt;&lt;font style=&quot;vertical-align: inherit; font-size: 20px;&quot;&gt;&lt;font style=&quot;vertical-align: inherit; font-size: 20px;&quot;&gt;Google Tasks API&lt;/font&gt;&lt;/font&gt;&lt;/font&gt;&lt;/font&gt;&lt;/strong&gt;&lt;font style=&quot;vertical-align: inherit; font-size: 20px;&quot;&gt;&lt;font style=&quot;vertical-align: inherit; font-size: 20px;&quot;&gt;&lt;font style=&quot;vertical-align: inherit; font-size: 20px;&quot;&gt;&lt;font style=&quot;vertical-align: inherit; font-size: 20px;&quot;&gt; .&lt;/font&gt;&lt;/font&gt;&lt;/font&gt;&lt;/font&gt;&lt;/font&gt;" style="text;strokeColor=none;align=left;fillColor=none;html=1;verticalAlign=middle;whiteSpace=wrap;rounded=0;fontSize=16;" vertex="1" parent="1">
          <mxGeometry x="-496" y="432" width="672" height="30" as="geometry" />
        </mxCell>
        <mxCell id="XdPFumAg-L-F2V5rF2W7-52" style="edgeStyle=orthogonalEdgeStyle;rounded=0;orthogonalLoop=1;jettySize=auto;html=1;" edge="1" parent="1" source="XdPFumAg-L-F2V5rF2W7-17">
          <mxGeometry relative="1" as="geometry">
            <mxPoint x="352" y="448" as="targetPoint" />
            <Array as="points">
              <mxPoint x="353" y="448" />
            </Array>
          </mxGeometry>
        </mxCell>
        <mxCell id="XdPFumAg-L-F2V5rF2W7-17" value="&lt;font style=&quot;font-size: 20px;&quot;&gt;&lt;strong&gt;Google Tasks API&lt;/strong&gt; retorna a lista de tarefas.&lt;/font&gt;" style="text;strokeColor=none;align=left;fillColor=none;html=1;verticalAlign=middle;whiteSpace=wrap;rounded=0;" vertex="1" parent="1">
          <mxGeometry x="144" y="555" width="416" height="30" as="geometry" />
        </mxCell>
        <mxCell id="XdPFumAg-L-F2V5rF2W7-32" style="edgeStyle=orthogonalEdgeStyle;rounded=0;orthogonalLoop=1;jettySize=auto;html=1;entryX=1;entryY=0.5;entryDx=0;entryDy=0;" edge="1" parent="1" source="XdPFumAg-L-F2V5rF2W7-22" target="XdPFumAg-L-F2V5rF2W7-1">
          <mxGeometry relative="1" as="geometry">
            <Array as="points">
              <mxPoint x="384" y="120" />
            </Array>
          </mxGeometry>
        </mxCell>
        <mxCell id="XdPFumAg-L-F2V5rF2W7-22" value="&lt;font style=&quot;font-size: 20px;&quot;&gt;&lt;strong&gt;Extensão&lt;/strong&gt; exibe as tarefas ao &lt;strong&gt;Usuário&lt;/strong&gt;.&lt;/font&gt;" style="text;strokeColor=none;align=left;fillColor=none;html=1;verticalAlign=middle;whiteSpace=wrap;rounded=0;" vertex="1" parent="1">
          <mxGeometry x="160" y="192" width="352" height="30" as="geometry" />
        </mxCell>
        <mxCell id="XdPFumAg-L-F2V5rF2W7-44" style="edgeStyle=orthogonalEdgeStyle;rounded=0;orthogonalLoop=1;jettySize=auto;html=1;exitX=0.5;exitY=1;exitDx=0;exitDy=0;entryX=1;entryY=0.75;entryDx=0;entryDy=0;" edge="1" parent="1" source="XdPFumAg-L-F2V5rF2W7-24" target="XdPFumAg-L-F2V5rF2W7-15">
          <mxGeometry relative="1" as="geometry" />
        </mxCell>
        <mxCell id="XdPFumAg-L-F2V5rF2W7-24" value="&lt;font style=&quot;font-size: 20px;&quot;&gt;TAREFA&lt;/font&gt;" style="shape=ext;double=1;rounded=0;whiteSpace=wrap;html=1;" vertex="1" parent="1">
          <mxGeometry x="544" y="200" width="240" height="120" as="geometry" />
        </mxCell>
        <mxCell id="XdPFumAg-L-F2V5rF2W7-25" style="edgeStyle=orthogonalEdgeStyle;rounded=0;orthogonalLoop=1;jettySize=auto;html=1;exitX=0.5;exitY=1;exitDx=0;exitDy=0;" edge="1" parent="1" source="XdPFumAg-L-F2V5rF2W7-12" target="XdPFumAg-L-F2V5rF2W7-12">
          <mxGeometry relative="1" as="geometry" />
        </mxCell>
        <mxCell id="XdPFumAg-L-F2V5rF2W7-35" value="" style="edgeStyle=orthogonalEdgeStyle;rounded=0;orthogonalLoop=1;jettySize=auto;html=1;exitX=1;exitY=0.25;exitDx=0;exitDy=0;" edge="1" parent="1" source="XdPFumAg-L-F2V5rF2W7-1">
          <mxGeometry relative="1" as="geometry">
            <mxPoint x="288" y="79" as="targetPoint" />
            <mxPoint x="190" y="80" as="sourcePoint" />
            <Array as="points" />
          </mxGeometry>
        </mxCell>
        <mxCell id="XdPFumAg-L-F2V5rF2W7-36" value="&lt;font style=&quot;font-size: 20px;&quot;&gt;&lt;strong&gt;Usuário&lt;/strong&gt; adiciona uma nova tarefa.&lt;/font&gt;" style="text;strokeColor=none;align=left;fillColor=none;html=1;verticalAlign=middle;whiteSpace=wrap;rounded=0;" vertex="1" parent="1">
          <mxGeometry x="304" y="64" width="320" height="30" as="geometry" />
        </mxCell>
        <mxCell id="XdPFumAg-L-F2V5rF2W7-63" style="edgeStyle=orthogonalEdgeStyle;rounded=0;orthogonalLoop=1;jettySize=auto;html=1;exitX=0.5;exitY=1;exitDx=0;exitDy=0;" edge="1" parent="1" source="XdPFumAg-L-F2V5rF2W7-47">
          <mxGeometry relative="1" as="geometry">
            <mxPoint x="857" y="880" as="targetPoint" />
          </mxGeometry>
        </mxCell>
        <mxCell id="XdPFumAg-L-F2V5rF2W7-47" value="&lt;font style=&quot;vertical-align: inherit; font-size: 20px;&quot;&gt;&lt;font style=&quot;vertical-align: inherit; font-size: 20px;&quot;&gt;&lt;font style=&quot;vertical-align: inherit; font-size: 20px;&quot;&gt;&lt;font style=&quot;vertical-align: inherit; font-size: 20px;&quot;&gt;&lt;font style=&quot;vertical-align: inherit;&quot;&gt;&lt;font style=&quot;vertical-align: inherit;&quot;&gt;&lt;font style=&quot;vertical-align: inherit;&quot;&gt;&lt;font style=&quot;vertical-align: inherit;&quot;&gt;Google Tasks API&lt;/font&gt;&lt;/font&gt;&lt;/font&gt;&lt;/font&gt;&lt;/font&gt;&lt;/font&gt;&lt;/font&gt;&lt;/font&gt;" style="shape=ext;double=1;rounded=0;whiteSpace=wrap;html=1;" vertex="1" parent="1">
          <mxGeometry x="736" y="632" width="240" height="120" as="geometry" />
        </mxCell>
        <mxCell id="XdPFumAg-L-F2V5rF2W7-39" value="&lt;font style=&quot;font-size: 20px;&quot;&gt;&lt;strong&gt;Extensão&lt;/strong&gt; envia a nova tarefa para o &lt;strong&gt;Google Tasks API&lt;/strong&gt;.&lt;/font&gt;" style="text;strokeColor=none;align=left;fillColor=none;html=1;verticalAlign=top;rounded=0;whiteSpace=wrap;" vertex="1" parent="1">
          <mxGeometry x="600" y="482" width="512" height="30" as="geometry" />
        </mxCell>
      </root>
    </mxGraphModel>
  </diagram>
</mxfile>
